# File created by Blade
# Date/Time:  Thu Jan 15 17:55:17 2015
#---------------------------------------------------------
:version 1.10
:name HOM
:units
  mass 1.0
  length 1.000000
  angle deg
:documentation
     Acclaim Skeleton File
:root
   axis xyz
   order TX TY TZ RX RY RZ
   position 0.000000 0.000000 0.000000
   orientation 0 0 0
:bonedata
   begin
      id 1
      name Spine_dum
      direction 0.000000 1.000000 0.000000
      length 5.015652
      axis 0.0 0.0 0.0 xyz
   end
   begin
      id 2
      name LeftUpLeg_dum
      direction 1.000000 0.000000 0.000000
      length 4.275145
      axis 0.0 0.0 0.0 xyz
   end
   begin
      id 3
      name RightUpLeg_dum
      direction -1.000000 0.000000 0.000000
      length 4.275145
      axis 0.0 0.0 0.0 xyz
   end
   begin
      id 4
      name Spine
      direction 0.000000 1.000000 0.000000
      length 0.000000
      axis 0.0 0.0 0.0 xyz
      dof rx ry rz
   end
   begin
      id 5
      name Spine_dum1
      direction 0.000000 1.000000 0.000000
      length 15.980521
      axis 0.0 0.0 0.0 xyz
   end
   begin
      id 6
      name Spine_dum2
      direction 0.000000 1.000000 0.000000
      length 12.162712
      axis 0.0 0.0 0.0 xyz
   end
   begin
      id 7
      name Spine_dum3
      direction 0.000000 1.000000 0.000000
      length 12.162712
      axis 0.0 0.0 0.0 xyz
   end
   begin
      id 8
      name Head
      direction 0.000000 1.000000 0.000000
      length 4.527550
      axis 0.0 0.0 0.0 xyz
      dof rx ry rz
   end
   begin
      id 9
      name LeftShoulder
      direction 1.000000 0.000000 0.000000
      length 7.205867
      axis 0.0 0.0 -90.0 xyz
      dof rx ry rz
   end
   begin
      id 10
      name LeftArm
      direction 1.000000 0.000000 0.000000
      length 10.786708
      axis 0.0 0.0 -90.0 xyz
      dof rx ry rz
   end
   begin
      id 11
      name LeftForeArm
      direction 1.000000 0.000000 0.000000
      length 7.946034
      axis 0.0 0.0 -90.0 xyz
      dof rz ry rx
   end
   begin
      id 12
      name LeftHand
      direction 0.000000 0.000000 0.000000
      length 0.000000
      axis 0.0 0.0 -90.0 xyz
      dof rx ry rz
   end
   begin
      id 13
      name LeftHand_dum1
      direction 0.000000 0.000000 0.000000
      length 0.000000
      axis 0.0 0.0 -90.0 xyz
   end
   begin
      id 14
      name LeftHand_dum2
      direction 1.000000 0.000000 0.000000
      length 3.937000
      axis 0.0 0.0 -90.0 xyz
   end
   begin
      id 15
      name LeftHandThumb1
      direction 0.000000 0.000000 1.000000
      length 3.937000
      axis 0.0 0.0 -90.0 xyz
      dof rx ry rz
   end
   begin
      id 16
      name RightShoulder
      direction -1.000000 0.000000 0.000000
      length 7.205867
      axis 0.0 0.0 90.0 xyz
      dof rx ry rz
   end
   begin
      id 17
      name RightArm
      direction -1.000000 0.000000 0.000000
      length 10.786708
      axis 0.0 0.0 90.0 xyz
      dof rx ry rz
   end
   begin
      id 18
      name RightForeArm
      direction -1.000000 0.000000 0.000000
      length 7.946034
      axis 0.0 0.0 90.0 xyz
      dof rz ry rx
   end
   begin
      id 19
      name RightHand
      direction 0.000000 0.000000 0.000000
      length 0.000000
      axis 0.0 0.0 90.0 xyz
      dof rx ry rz
   end
   begin
      id 20
      name RightHand_dum1
      direction 0.000000 0.000000 0.000000
      length 0.000000
      axis 0.0 0.0 90.0 xyz
   end
   begin
      id 21
      name RightHand_dum2
      direction -1.000000 0.000000 0.000000
      length 3.937000
      axis 0.0 0.0 90.0 xyz
   end
   begin
      id 22
      name RightHandThumb1
      direction 0.000000 0.000000 1.000000
      length 3.937000
      axis 0.0 0.0 90.0 xyz
      dof rx ry rz
   end
   begin
      id 23
      name LeftUpLeg
      direction 0.000000 -1.000000 0.000000
      length 17.046659
      axis 0.0 0.0 0.0 xyz
      dof rx ry rz
   end
   begin
      id 24
      name LeftLeg
      direction 0.000000 -1.000000 0.000000
      length 17.458438
      axis 0.0 0.0 0.0 xyz
      dof rx ry rz
   end
   begin
      id 25
      name LeftFoot
      direction 0.000000 -0.258819 0.965926
      length 5.099406
      axis 15.0 0.0 0.0 xyz
      dof rx ry rz
   end
   begin
      id 26
      name LeftToeBase
      direction 0.000000 0.000000 1.000000
      length 2.952750
      axis 0.0 0.0 0.0 xyz
      dof rx ry rz
   end
   begin
      id 27
      name RightUpLeg
      direction 0.000000 -1.000000 0.000000
      length 17.046659
      axis 0.0 0.0 0.0 xyz
      dof rx ry rz
   end
   begin
      id 28
      name RightLeg
      direction 0.000000 -1.000000 0.000000
      length 17.458438
      axis 0.0 0.0 0.0 xyz
      dof rx ry rz
   end
   begin
      id 29
      name RightFoot
      direction 0.000000 -0.258819 0.965926
      length 5.099406
      axis 15.0 0.0 0.0 xyz
      dof rx ry rz
   end
   begin
      id 30
      name RightToeBase
      direction 0.000000 0.000000 1.000000
      length 2.952750
      axis 0.0 0.0 0.0 xyz
      dof rx ry rz
   end
:hierarchy
   begin
      root Spine_dum LeftUpLeg_dum RightUpLeg_dum
      Spine_dum Spine
      LeftUpLeg_dum LeftUpLeg
      RightUpLeg_dum RightUpLeg
      Spine Spine_dum1 Spine_dum2 Spine_dum3
      Spine_dum1 Head
      Spine_dum2 LeftShoulder
      Spine_dum3 RightShoulder
      LeftShoulder LeftArm
      LeftArm LeftForeArm
      LeftForeArm LeftHand
      LeftHand LeftHand_dum1 LeftHand_dum2
      LeftHand_dum1 LeftHandThumb1
      RightShoulder RightArm
      RightArm RightForeArm
      RightForeArm RightHand
      RightHand RightHand_dum1 RightHand_dum2
      RightHand_dum1 RightHandThumb1
      LeftUpLeg LeftLeg
      LeftLeg LeftFoot
      LeftFoot LeftToeBase
      RightUpLeg RightLeg
      RightLeg RightFoot
      RightFoot RightToeBase
   end

# File created by Blade
# Date/Time:  Thu Jan 15 17:55:09 2015
# Frame Rate: 120.000 fps
#------------------------------------------------------
:FULLY-SPECIFIED
:DEGREES
470
root 5.435419 28.648742 -13.692776 3.552928 0.969053 1.803658
Spine 11.005929 -11.271332 -7.506871
Head -20.288982 12.566170 18.313604
LeftShoulder -20.013606 -8.733819 24.508198
LeftArm 70.816555 -17.495925 -33.850643
LeftForeArm -0.000000 28.021370 1.518242
LeftHand 3.451373 -0.000000 0.395938
LeftHandThumb1 -26.253704 33.147579 0.000000
RightShoulder 13.182218 38.158582 -13.981010
RightArm 48.570562 14.483029 53.402393
RightForeArm -0.000000 -49.543149 12.825169
RightHand -4.045190 -0.000000 0.869446
RightHandThumb1 -24.326973 -32.862282 -0.000000
LeftUpLeg -47.877157 21.915200 -3.269855
LeftLeg 84.662704 -0.000000 -0.000000
LeftFoot -34.795890 3.621187 -12.502299
LeftToeBase 2.506623 -0.000000 -0.000000
RightUpLeg -44.915551 -20.946012 2.847826
RightLeg 83.172902 -0.000000 -0.000000
RightFoot -44.201230 -12.470281 14.298834
RightToeBase 10.132378 -0.000000 -0.000000
471
root 5.451047 28.967473 -13.655347 3.548590 1.089955 1.779422
Spine 10.822696 -11.306845 -7.440916
Head -20.056611 12.379230 18.346634
LeftShoulder -20.018744 -8.501852 24.191446
LeftArm 70.511077 -17.164281 -34.178780
LeftForeArm -0.000000 28.020613 1.605908
LeftHand 3.543900 -0.000000 0.553904
LeftHandThumb1 -26.253704 33.147579 0.000000
RightShoulder 13.313661 37.645028 -13.659359
RightArm 48.215790 14.399509 53.290694
RightForeArm -0.000000 -49.830916 12.671198
RightHand -4.028699 -0.000000 0.763107
RightHandThumb1 -24.326973 -32.862282 -0.000000
LeftUpLeg -46.850574 21.793428 -3.273159
LeftLeg 82.888999 -0.000000 -0.000000
LeftFoot -34.602137 3.815612 -12.482525
LeftToeBase 3.180002 -0.000000 -0.000000
RightUpLeg -43.740619 -20.999249 2.763601
RightLeg 81.151140 -0.000000 -0.000000
RightFoot -44.197232 -12.711790 14.162843
RightToeBase 10.942362 -0.000000 -0.000000
472
root 5.468148 29.281775 -13.618375 3.529895 1.206595 1.741237
Spine 10.664475 -11.339933 -7.362369
Head -19.853813 12.209972 18.343783
LeftShoulder -20.043789 -8.349185 23.936679
LeftArm 70.149852 -16.752231 -34.570884
LeftForeArm -0.000000 28.051471 1.673229
LeftHand 3.732834 -0.000000 0.758055
LeftHandThumb1 -26.253704 33.147579 0.000000
RightShoulder 13.465613 37.153134 -13.310539
RightArm 47.845827 14.295165 53.104895
RightForeArm -0.000000 -50.136799 12.557701
RightHand -4.014948 -0.000000 0.995288
RightHandThumb1 -24.326973 -32.862282 -0.000000
LeftUpLeg -45.809087 21.670473 -3.265043
LeftLeg 81.112246 -0.000000 -0.000000
LeftFoot -34.424918 4.053737 -12.477212
LeftToeBase 3.852671 -0.000000 -0.000000
RightUpLeg -42.555774 -21.046615 2.705590
RightLeg 79.099910 -0.000000 -0.000000
RightFoot -44.199993 -12.949388 14.113461
RightToeBase 11.787228 -0.000000 -0.000000
473
root 5.487871 29.592099 -13.581103 3.524464 1.301470 1.731185
Spine 10.491744 -11.340414 -7.296552
Head -19.697901 12.008947 18.327719
LeftShoulder -20.055214 -8.246481 23.702629
LeftArm 69.723196 -16.346482 -35.135860
LeftForeArm 0.000000 28.028294 1.836151
LeftHand 3.773784 -0.000000 0.904987
LeftHandThumb1 -26.253704 33.147579 0.000000
RightShoulder 13.576728 36.735961 -13.016340
RightArm 47.440464 14.204563 53.044330
RightForeArm -0.000000 -50.527032 12.442037
RightHand -3.973789 -0.000000 1.357796
RightHandThumb1 -24.326973 -32.862282 -0.000000
LeftUpLeg -44.739359 21.681501 -3.300788
LeftLeg 79.265404 -0.000000 -0.000000
LeftFoot -34.303355 4.234139 -12.343464
LeftToeBase 4.607112 -0.000000 -0.000000
RightUpLeg -41.387198 -21.048567 2.642583
RightLeg 77.018123 -0.000000 -0.000000
RightFoot -44.264399 -13.389681 14.056350
RightToeBase 12.895840 -0.000000 -0.000000
474
root 5.507425 29.896484 -13.547686 3.576619 1.366756 1.708482
Spine 10.247726 -11.321575 -7.217838
Head -19.520906 11.851545 18.281022
LeftShoulder -20.052464 -8.161939 23.558045
LeftArm 69.272167 -15.982553 -36.023565
LeftForeArm -0.000000 28.514581 1.931203
LeftHand 3.992184 -0.000000 1.385820
LeftHandThumb1 -26.253704 33.147579 0.000000
RightShoulder 13.683657 36.333614 -12.712403
RightArm 46.955088 13.983610 52.834726
RightForeArm -0.000000 -50.795907 12.363235
RightHand -3.994391 -0.000000 1.529781
RightHandThumb1 -24.326973 -32.862282 -0.000000
LeftUpLeg -43.764600 21.611439 -3.345672
LeftLeg 77.452996 -0.000000 -0.000000
LeftFoot -34.127955 4.426417 -12.422727
LeftToeBase 5.312932 -0.000000 -0.000000
RightUpLeg -40.316605 -21.065302 2.649060
RightLeg 74.940855 -0.000000 -0.000000
RightFoot -44.203756 -13.762204 14.122653
RightToeBase 13.528040 -0.000000 -0.000000
475
root 5.532873 30.197959 -13.511171 3.613759 1.449112 1.697997
Spine 10.019507 -11.339465 -7.143018
Head -19.334348 11.721145 18.254590
LeftShoulder -20.078481 -7.956394 23.284948
LeftArm 68.867772 -15.657183 -36.598427
LeftForeArm 0.000000 28.798603 2.012622
LeftHand 4.103370 -0.000000 1.982566
LeftHandThumb1 -26.253704 33.147579 0.000000
RightShoulder 13.767386 35.818294 -12.419934
RightArm 46.633587 13.889992 52.751200
RightForeArm -0.000000 -51.039448 12.290869
RightHand -3.990652 -0.000000 1.477186
RightHandThumb1 -24.326973 -32.862282 -0.000000
LeftUpLeg -42.755533 21.443646 -3.403813
LeftLeg 75.617235 -0.000000 -0.000000
LeftFoot -33.984152 4.674353 -12.590250
LeftToeBase 6.091794 -0.000000 -0.000000
RightUpLeg -39.201697 -21.120945 2.635497
RightLeg 72.812841 -0.000000 -0.000000
RightFoot -44.197694 -14.160217 14.203259
RightToeBase 14.254853 -0.000000 -0.000000
